<svg width="30" height="30" viewBox="0 0 30 30" fill="none" xmlns="http://www.w3.org/2000/svg">
<g clip-path="url(#clip0_141_193)">
<path d="M27 10.3532V0H24V3.15789H6V0H3V10.3532C1.215 11.4474 0 13.4605 0 15.7895V22.1053C0 22.524 0.158035 22.9256 0.43934 23.2218C0.720644 23.5179 1.10218 23.6842 1.5 23.6842H3V30H6V23.6842H24V30H27V23.6842H28.5C28.8978 23.6842 29.2794 23.5179 29.5607 23.2218C29.842 22.9256 30 22.524 30 22.1053V15.7895C30 13.4605 28.7835 11.4474 27 10.3532ZM24 6.31579V9.47368H16.5V6.31579H24ZM6 6.31579H13.5V9.47368H6V6.31579ZM27 20.5263H3V15.7895C3 14.0479 4.3455 12.6316 6 12.6316H24C25.6545 12.6316 27 14.0479 27 15.7895V20.5263Z" fill="black"/>
</g>
<defs>
<clipPath id="clip0_141_193">
<rect width="30" height="30" fill="white"/>
</clipPath>
</defs>
</svg>
